<svg width="45" height="64" viewBox="0 0 45 64" fill="none" xmlns="http://www.w3.org/2000/svg">
<path d="M12.1006 42.9681H32.2682V52.3642H12.1006V42.9681Z" fill="#991B1B"/>
<path d="M22.1844 7.26291C9.9519 7.26291 0 16.5362 0 27.9343V56.1226C0 60.2674 3.61887 63.6395 8.06704 63.6395H36.3017C40.7498 63.6395 44.3687 60.2674 44.3687 56.1226V27.9343C44.3687 16.5361 34.417 7.26291 22.1844 7.26291ZM10.0838 24.1759H34.2849V27.9343H30.2514V31.6928H26.2179V27.9343H10.0838V24.1759ZM36.3017 56.1226H8.06704V39.2096H36.3017V56.1226Z" fill="#991B1B"/>
<path d="M42.8971 3.65684L31.4506 0L29.7764 4.55022C33.8214 5.69266 37.4553 7.72297 40.417 10.3971L42.8971 3.65684Z" fill="#991B1B"/>
<path d="M14.5925 4.55022L12.9181 0L1.47168 3.65684L3.95176 10.3971C6.91344 7.72309 10.5475 5.69266 14.5925 4.55022Z" fill="#991B1B"/>
</svg>
